<svg xmlns="http://www.w3.org/2000/svg" xmlns:xlink="http://www.w3.org/1999/xlink" id="Layer_1" x="0px" y="0px" viewBox="0 0 140 53" style="enable-background:new 0 0 140 53;" xml:space="preserve"> <style type="text/css"> .st0{fill:#FFFFFF;} .st1{fill:#FFD923;} </style> <g> <g id="Layer_2_1_"> <g> <path class="st0" d="M10.5,44.7c0-1.7-1.2-2.7-3.2-2.7H4.3v8.1h0.9v-2.5h2.1c0.2,0,0.4,0,0.5,0l1.7,2.6h1l-1.9-2.7 C9.8,46.9,10.5,46,10.5,44.7z M7.3,46.6H5.2v-3.7h2.1c1.5,0,2.3,0.6,2.3,1.8C9.6,45.9,8.8,46.6,7.3,46.6z"></path> <polygon class="st0" points="14.4,46.4 18.5,46.4 18.5,45.5 14.4,45.5 14.4,42.8 19,42.8 19,41.9 13.5,41.9 13.5,50 19.1,50 19.1,49.2 14.4,49.2 "></polygon> <path class="st0" d="M22.6,43.9c0-0.7,0.7-1.1,1.7-1.1c0.6,0,1.5,0.2,2.2,0.7l0.4-0.9c-0.7-0.4-1.6-0.7-2.6-0.7 c-1.7,0-2.8,0.8-2.8,2.1c0,2.9,4.5,1.8,4.5,3.9c0,0.8-0.7,1.2-1.9,1.2c-0.9,0-1.9-0.4-2.7-1.1l-0.4,0.8c0.8,0.7,1.9,1.2,3.1,1.2 c1.7,0,2.9-0.9,2.9-2.2C27.1,44.9,22.6,46,22.6,43.9z"></path> <path class="st0" d="M33.4,41.9c-2.4,0-4.2,1.8-4.2,4.1c0,2.3,1.9,4.1,4.2,4.1c2.3,0,4.2-1.8,4.2-4.1 C37.7,43.7,35.8,41.9,33.4,41.9z M33.4,49.2c-1.8,0-3.3-1.4-3.3-3.2c0-1.8,1.5-3.2,3.3-3.2c1.8,0,3.3,1.4,3.3,3.2 C36.7,47.8,35.2,49.2,33.4,49.2z"></path> <path class="st0" d="M46,46.7c0,1.6-0.9,2.5-2.5,2.5c-1.5,0-2.5-0.9-2.5-2.5V42h-0.9v4.7c0,2.1,1.3,3.4,3.4,3.4 c2.1,0,3.4-1.3,3.4-3.4V42h-0.9L46,46.7L46,46.7z"></path> <path class="st0" d="M56.3,44.7c0-1.7-1.2-2.7-3.2-2.7h-3.1v8.1H51v-2.5h2.1c0.2,0,0.4,0,0.5,0l1.7,2.6h1l-1.9-2.7 C55.7,46.9,56.3,46,56.3,44.7z M53.2,46.6H51v-3.7h2.1c1.5,0,2.3,0.6,2.3,1.8C55.5,45.9,54.6,46.6,53.2,46.6z"></path> <path class="st0" d="M62.8,49.2c-1.8,0-3.3-1.4-3.3-3.2c0-1.8,1.5-3.2,3.3-3.2c0.9,0,1.8,0.4,2.4,1l0.6-0.7 c-0.8-0.7-1.8-1.2-2.9-1.2c-2.3,0-4.2,1.8-4.2,4c0,2.3,1.8,4.1,4.2,4.1c1.1,0,2.2-0.5,3-1.2l-0.6-0.6 C64.6,48.8,63.7,49.2,62.8,49.2z"></path> <polygon class="st0" points="69.3,46.4 73.4,46.4 73.4,45.5 69.3,45.5 69.3,42.8 73.9,42.8 73.9,41.9 68.4,41.9 68.4,50 74,50 74,49.2 69.3,49.2 "></polygon> <path class="st0" d="M77.4,43.9c0-0.7,0.7-1.1,1.7-1.1c0.6,0,1.5,0.2,2.2,0.7l0.4-0.9c-0.7-0.4-1.6-0.7-2.6-0.7 c-1.7,0-2.8,0.8-2.8,2.1c0,2.9,4.5,1.8,4.5,3.9c0,0.8-0.7,1.2-1.9,1.2c-0.9,0-1.9-0.4-2.7-1.1l-0.4,0.8c0.8,0.7,1.9,1.2,3.1,1.2 c1.7,0,2.9-0.9,2.9-2.2C82,44.9,77.4,46,77.4,43.9z"></path> <polygon class="st0" points="89.8,41.9 88.9,41.9 88.9,50 93.4,50 93.4,49.2 89.8,49.2 "></polygon> <rect x="95.8" y="41.9" class="st0" width="0.9" height="8.1"></rect> <polygon class="st0" points="104.2,47.8 101.3,41.9 100.1,41.9 100.1,50 101,50 101,43.4 103.9,49.2 104.5,49.2 107.4,43.4 107.4,50 108.3,50 108.3,41.9 107.1,41.9 "></polygon> <rect x="111.7" y="41.9" class="st0" width="0.9" height="8.1"></rect> <polygon class="st0" points="114.9,42.8 117.5,42.8 117.5,50 118.4,50 118.4,42.8 121.1,42.8 121.1,41.9 114.9,41.9 "></polygon> <polygon class="st0" points="124.3,46.4 128.3,46.4 128.3,45.5 124.3,45.5 124.3,42.8 128.8,42.8 128.8,41.9 123.3,41.9 123.3,50 129,50 129,49.2 124.3,49.2 "></polygon> <path class="st0" d="M135.1,41.9h-3.3V50h3.2c2.4,0,4.2-1.7,4.2-4C139.2,43.7,137.4,41.9,135.1,41.9z M135.1,49.2h-2.3v-6.3h2.3 c1.8,0,3.2,1.3,3.2,3.2C138.3,47.8,136.9,49.2,135.1,49.2z"></path> </g> <g> <path class="st1" d="M133.8,9.8c-0.1,0-0.2,0.1-0.2,0.2c0,0.2,0.1,0.5,0.3,0.5c0,0,0,0,0.1,0l4.5-1.4c0.2-0.1,0.2-0.3,0.2-0.5 c0-0.2-0.1-0.4-0.2-0.5L134,6.8c0,0,0,0-0.1,0c-0.2,0-0.3,0.3-0.3,0.5c0,0.1,0,0.2,0.2,0.3l1,0.2v1.7L133.8,9.8z M135.4,8 l2.4,0.7l-2.4,0.7V8z"></path> <path class="st1" d="M137.4,11.1c-1.7,0-1.2,2.2-2.4,2.2c-0.5,0-0.7-0.4-0.7-0.9c0-0.8,0.5-0.9,0.5-1.2c0-0.2-0.2-0.3-0.4-0.3 c-0.3,0-0.8,0.6-0.8,1.5c0,0.9,0.5,1.6,1.5,1.6c1.8,0,1.4-2.2,2.4-2.2c0.4,0,0.6,0.4,0.6,0.9c0,0.6-0.3,0.8-0.3,1 s0.3,0.3,0.4,0.3c0.4,0,0.5-0.8,0.5-1.3C138.7,12,138.4,11.1,137.4,11.1z"></path> <path class="st1" d="M138.7,15.1c0-0.2-0.1-0.5-0.3-0.5c-0.1,0-0.1,0-0.2,0.1l-2,1.2l-2-1.2c-0.1,0-0.1,0-0.1,0 c-0.2,0-0.4,0.3-0.4,0.5c0,0.1,0.1,0.2,0.2,0.2l1.8,1l-1.8,1c-0.1,0-0.2,0.1-0.2,0.2c0,0.2,0.2,0.5,0.4,0.5c0,0,0.1,0,0.1,0 l2-1.2l2,1.2c0.1,0,0.1,0.1,0.2,0.1c0.2,0,0.3-0.2,0.3-0.5c0-0.1-0.1-0.2-0.2-0.3l-1.8-1l1.8-1C138.6,15.4,138.7,15.3,138.7,15.1 z"></path> <path class="st1" d="M137.7,19.2c0-0.2-0.2-0.4-0.4-0.4c-0.2,0-0.4,0.2-0.4,0.4c0,0.2,0.2,0.4,0.4,0.4S137.7,19.4,137.7,19.2z"></path> <path class="st1" d="M135.6,19.2c0-0.2-0.2-0.4-0.4-0.4c-0.2,0-0.4,0.2-0.4,0.4c0,0.2,0.2,0.4,0.4,0.4 C135.4,19.6,135.6,19.4,135.6,19.2z"></path> <path class="st1" d="M137.1,20.6h-2c-1.1,0-1.5,0.7-1.5,1.5c0,0.9,0.4,1.6,1.5,1.6h2c1.1,0,1.5-0.7,1.5-1.6 C138.7,21.2,138.3,20.6,137.1,20.6z M137.1,22.9h-2c-0.6,0-0.9-0.3-0.9-0.8c0-0.5,0.3-0.8,0.9-0.8h2c0.6,0,0.9,0.3,0.9,0.8 C138,22.6,137.8,22.9,137.1,22.9z"></path> <path class="st1" d="M138.7,25.1c0-0.2-0.1-0.4-0.2-0.4h-4.6c-0.2,0-0.2,0.2-0.2,0.4c0,0.2,0.1,0.4,0.2,0.4h1.4l0.6,0.4l-2.1,1.4 c-0.1,0.1-0.1,0.2-0.1,0.3c0,0.2,0.2,0.4,0.4,0.4c0,0,0.1,0,0.1,0l2.4-1.6l1.7,1.3c0,0,0.1,0.1,0.1,0.1c0.2,0,0.4-0.2,0.4-0.4 c0-0.1,0-0.2-0.1-0.2l-2.2-1.7h2.1C138.6,25.5,138.7,25.3,138.7,25.1z"></path> <path class="st1" d="M135.1,29.4h3.3c0.2,0,0.2-0.2,0.2-0.4c0-0.2-0.1-0.4-0.2-0.4h-3.3c-1.1,0-1.5,0.7-1.5,1.6 c0,0.9,0.4,1.6,1.5,1.6h3.3c0.2,0,0.2-0.2,0.2-0.4c0-0.2-0.1-0.4-0.2-0.4h-3.3c-0.6,0-0.9-0.3-0.9-0.8 C134.3,29.7,134.5,29.4,135.1,29.4z"></path> </g> <path class="st0" d="M30.3,7.7C28.8,6.2,27,5,24.9,4.2s-4.4-1.3-6.9-1.3c-2.5,0-4.8,0.4-6.9,1.3C8.9,5,7.1,6.2,5.6,7.7 s-2.7,3.2-3.5,5.2c-0.8,2-1.3,4.1-1.3,6.4c0,2.3,0.4,4.4,1.3,6.4s2,3.7,3.5,5.2c1.5,1.5,3.3,2.6,5.4,3.5c2.1,0.8,4.4,1.3,6.9,1.3 c2.5,0,4.8-0.4,6.9-1.3c2.1-0.8,3.9-2,5.5-3.5c1.5-1.5,2.7-3.2,3.5-5.2c0.8-2,1.3-4.1,1.3-6.4c0-2.3-0.4-4.4-1.3-6.4 C33,10.9,31.9,9.2,30.3,7.7z M26,22.7c-0.5,1-1.1,1.9-1.9,2.7c-0.8,0.8-1.7,1.4-2.8,1.8c-1.1,0.4-2.2,0.6-3.3,0.6 s-2.3-0.2-3.3-0.6c-1.1-0.4-2-1-2.8-1.8c-0.8-0.8-1.4-1.7-1.9-2.7c-0.5-1-0.7-2.2-0.7-3.4c0-1.2,0.2-2.4,0.7-3.4 c0.5-1,1.1-1.9,1.9-2.7c0.8-0.8,1.7-1.4,2.8-1.8c1.1-0.4,2.2-0.6,3.3-0.6s2.3,0.2,3.3,0.6c1.1,0.4,2,1,2.8,1.8 c0.8,0.8,1.4,1.7,1.9,2.7c0.5,1,0.7,2.2,0.7,3.4C26.7,20.5,26.5,21.7,26,22.7z"></path> <polygon class="st0" points="82.9,3.8 74.8,3.8 74.8,34.8 92.6,34.8 92.6,28 82.9,28 "></polygon> <path class="st0" d="M127.8,12.9c-0.8-2-2-3.7-3.5-5.2c-1.5-1.5-3.3-2.6-5.5-3.5c-2.1-0.8-4.4-1.3-6.9-1.3c-2.5,0-4.8,0.4-6.9,1.3 c-2.1,0.8-3.9,2-5.4,3.5c-1.5,1.5-2.7,3.2-3.5,5.2c-0.8,2-1.3,4.1-1.3,6.4c0,2.3,0.4,4.4,1.3,6.4c0.8,2,2,3.7,3.5,5.2 c1.5,1.5,3.3,2.6,5.4,3.5c2.1,0.8,4.4,1.3,6.9,1.3c2.5,0,4.8-0.4,6.9-1.3c2.1-0.8,3.9-2,5.5-3.5c1.5-1.5,2.7-3.2,3.5-5.2 c0.8-2,1.3-4.1,1.3-6.4S128.6,14.9,127.8,12.9z M119.9,22.7c-0.5,1-1.1,1.9-1.9,2.7s-1.7,1.4-2.8,1.8c-1.1,0.4-2.2,0.6-3.3,0.6 c-1.2,0-2.3-0.2-3.3-0.6c-1.1-0.4-2-1-2.8-1.8c-0.8-0.8-1.4-1.7-1.9-2.7c-0.5-1-0.7-2.2-0.7-3.4c0-1.2,0.2-2.4,0.7-3.4 c0.5-1,1.1-1.9,1.9-2.7c0.8-0.8,1.7-1.4,2.8-1.8c1.1-0.4,2.2-0.6,3.3-0.6c1.2,0,2.3,0.2,3.3,0.6c1.1,0.4,2,1,2.8,1.8 c0.8,0.8,1.4,1.7,1.9,2.7c0.5,1,0.7,2.2,0.7,3.4C120.6,20.5,120.4,21.7,119.9,22.7z"></path> <g> <path class="st0" d="M70.5,3.8H59.3l-11,14.7v-1.9V3.8h-1v31h1V22v-1.9l10.9,14.6l0.1,0.1h11.1L58.8,19.3L70.5,3.8z M60,5.1h3.4 l-10,13.2L51.8,16L60,5.1z M49.3,19.3l1.6-2.1l1.6,2.1L51,21.5L49.3,19.3z M60,33.5l-8.3-11.1l1.7-2.2l10,13.3H60z M67.9,33.5H65 L54.2,19.3L65,5.1h2.9L57.2,19.3L67.9,33.5z"></path> <polygon class="st0" points="46.4,3.8 40.3,3.8 40.3,19.3 40.3,34.8 46.4,34.8 "></polygon> </g> </g> </g> </svg>