<svg id="_x33_0" enable-background="new 0 0 64 64" height="512" viewBox="0 0 64 64" width="512" xmlns="http://www.w3.org/2000/svg"><g><path d="m32 22c1.615 0 3.067-.897 3.789-2.342l.105-.211-1.789-.895-.105.212c-.381.762-1.147 1.236-2 1.236s-1.619-.474-2-1.236l-.105-.211-1.789.895.105.211c.722 1.444 2.174 2.341 3.789 2.341z"/><path d="m55 43h-4v-5.809c0-2.964-1.314-5.743-3.606-7.624-1.189-.976-2.613-1.668-4.12-2.003l-6.427-1.403-.324-1.569c1.837-1.264 3.116-3.276 3.407-5.592h.07c2.206 0 4-1.794 4-4 0-.807-.244-1.556-.657-2.185.326-1.133.657-2.569.657-3.815 0-2.027-1.516-3.707-3.474-3.966l-.508-.676c-1.577-2.103-4.087-3.358-6.715-3.358-.983 0-1.948.17-2.869.506l-6.579 2.392c-2.306.838-3.855 3.05-3.855 5.504 0 .478.059.955.179 1.437l.514 1.915c-.436.641-.693 1.414-.693 2.246 0 2.206 1.794 4 4 4h.069c.295 2.35 1.607 4.388 3.488 5.648l-.338 1.352h-6.983c-.654 0-1.309-.154-1.894-.447-1.445-.722-2.342-2.174-2.342-3.789v-3.349l.536-.535c.944-.945 1.464-2.201 1.464-3.537v-2.343c0-1.302-.839-2.402-2-2.816v-1.184c0-2.757-2.243-5-5-5s-5 2.243-5 5v5.929c0 1.207.355 2.36 1.016 3.341-.604.345-1.016.987-1.016 1.73v3.092c0 4.661 2.315 8.987 6.193 11.572 2.021 1.348 4.335 2.136 6.807 2.303v4.582c-.447.776-.821 1.596-1.125 2.452h-8.875v6h4v14h38v-14.001h4zm-8.875-11.886c1.827 1.499 2.875 3.714 2.875 6.077v5.809h-2.875c-.994-2.799-2.792-5.212-5.121-6.969l.852-6.729.987.216c1.199.266 2.334.818 3.282 1.596zm-21.252 3.691-.73-6.571 2.277 5.854c-.53.213-1.049.447-1.547.717zm7.168-2.655 1.593.943c-.537-.058-1.081-.093-1.634-.093-.492 0-.978.027-1.458.074zm7.853-3.276-.752 5.938c-.44-.239-.893-.455-1.358-.65l1.971-5.319zm-2.112-.461-1.464 3.953-2.712-1.585 2.712-2.688zm-4.64-15.413h-2.284c-.091-.351-.23-.68-.407-.986 1.333-.498 2.54-1.301 3.506-2.349.278.346.591.658.911.963-.845.536-1.468 1.379-1.726 2.372zm-8.142 1c0-1.103.897-2 2-2s2 .897 2 2-.897 2-2 2-2-.897-2-2zm12-2c1.103 0 2 .897 2 2s-.897 2-2 2-2-.897-2-2 .897-2 2-2zm3 5v-.382c.615-.703 1-1.612 1-2.618 0-.262-.029-.516-.077-.764.637.335 1.077.996 1.077 1.764 0 1.103-.897 2-2 2zm-15.461-11.224 6.579-2.392c.701-.254 1.436-.384 2.185-.384 2.002 0 3.915.956 5.116 2.559l1.081 1.441h.5c1.103 0 2 .897 2 2 0 .737-.158 1.606-.34 2.371-.508-.233-1.066-.371-1.66-.371h-.382c-.638-.557-1.447-.91-2.343-.972-.869-.595-1.611-1.335-2.197-2.213l-1.078-1.618-.832 1.248c-1.02 1.53-2.615 2.599-4.407 2.981-.533-.264-1.126-.426-1.761-.426-1.005 0-1.914.385-2.618 1h-.382c-.575 0-1.119.127-1.614.347l-.271-1.009c-.076-.307-.115-.621-.115-.936 0-1.616 1.021-3.073 2.539-3.626zm-2.539 9.224c0-.768.44-1.429 1.077-1.764-.048.248-.077.502-.077.764 0 1.005.385 1.914 1 2.618v.382c-1.103 0-2-.897-2-2zm4 3v-.142c.322.084.653.142 1 .142 1.858 0 3.411-1.279 3.858-3h2.284c.447 1.721 2 3 3.858 3 .347 0 .678-.058 1-.142v.142c0 3.309-2.691 6-6 6s-6-2.691-6-6zm6 8c.939 0 1.837-.171 2.675-.47l.237 1.144-2.912 2.912-2.892-2.893.285-1.139c.818.284 1.693.446 2.607.446zm-4.414 2 2.812 2.812-2.506 1.544-1.694-4.356zm-19.586-20c0-1.654 1.346-3 3-3s3 1.346 3 3v1.184c-1.161.414-2 1.514-2 2.816v1h2v-1c0-.552.449-1 1-1s1 .448 1 1v2.343c0 .802-.312 1.556-.878 2.122l-.536.535h-5.172l-.242-.242c-.756-.756-1.172-1.761-1.172-2.829zm12.908 26h-1c-2.359 0-4.643-.691-6.605-2-3.321-2.213-5.303-5.917-5.303-9.908v-3.092h6v2.764c0 2.378 1.321 4.515 3.448 5.578.861.43 1.825.658 2.788.658h1.869l.892 8.031c-.719.542-1.387 1.146-1.997 1.806v-2.837zm11.092 1c7.168 0 13 5.832 13 13s-5.832 13-13 13-13-5.832-13-13 5.832-13 13-13zm-21 10h6.302c-.133.651-.207 1.322-.252 2h-6.05zm4 16v-12h2.051c.341 5.136 3.268 9.566 7.498 12zm34 0h-9.549c4.229-2.434 7.157-6.864 7.498-12h2.051zm4-14h-6.051c-.045-.678-.119-1.349-.252-2h6.303z"/><path d="m27 53c1.103 0 2-.897 2-2v-3.236l-2.382-4.764h4.382v12h-4v2h10v-2h-4v-12h4.382l-2.382 4.764v3.236c0 1.103.897 2 2 2h4c1.103 0 2-.897 2-2v-3.236l-3.382-6.764h-6.618v-2h-2v2h-6.618l-3.382 6.764v3.236c0 1.103.897 2 2 2zm10-2v-2h4v2zm3.382-4h-2.764l1.382-2.764zm-17.382 4v-2h4v2zm2-6.764 1.382 2.764h-2.764z"/></g></svg>