<svg height="512" viewBox="0 0 64 64" width="512" xmlns="http://www.w3.org/2000/svg"><g id="Flat"><g id="OK_Big" data-name="OK Big"><path d="m32 61a31.148 31.148 0 0 1 -22-29.949v-21.46a40.066 40.066 0 0 0 21.526-6.291l.474-.3.476.3a40.068 40.068 0 0 0 21.524 6.291v21.46a31.148 31.148 0 0 1 -22 29.949z" fill="#ffd54f"/><path d="m54 31.051v-21.46a40.068 40.068 0 0 1 -21.522-6.291l-.478-.3v58a31.148 31.148 0 0 0 22-29.949z" fill="#ffc108"/><path d="m49 31.051v-15.851a1 1 0 0 0 -.869-.991 44.872 44.872 0 0 1 -15.653-5.1 1 1 0 0 0 -.478-.126v2.136a46.859 46.859 0 0 0 15 4.947v14.985a24.352 24.352 0 0 1 -15 22.538v2.075a1 1 0 0 0 .359-.066 26.349 26.349 0 0 0 16.641-24.547z" fill="#ff9800"/><path d="m17 31.051v-14.985a46.843 46.843 0 0 0 15-4.947v-2.136a1 1 0 0 0 -.478.122 44.86 44.86 0 0 1 -15.652 5.1 1 1 0 0 0 -.87.995v15.851a26.35 26.35 0 0 0 16.643 24.549 1.009 1.009 0 0 0 .359.066v-2.077a24.352 24.352 0 0 1 -15.002-22.538z" fill="#ffa727"/></g><path d="m39.031 34.377-31.581 19.302a2.926 2.926 0 0 1 -4.06-1.034 2.926 2.926 0 0 1 1.135-4.032l32.506-17.7z" fill="#8c6239"/><path d="m37.031 30.913-2.072 1.129c.31.6.636 1.209.981 1.807s.707 1.187 1.076 1.76l2.015-1.232z" fill="#603813"/><path d="m50.182 38.33-5.36 3.1a18.975 18.975 0 0 1 -3.05-2.83 34.414 34.414 0 0 1 -4.1-5.75 35.125 35.125 0 0 1 -2.93-6.42 19.578 19.578 0 0 1 -.92-4.06l5.36-3.09a19.3 19.3 0 0 1 3.05 2.82 35.433 35.433 0 0 1 4.1 5.75 34.451 34.451 0 0 1 2.92 6.43 18.818 18.818 0 0 1 .93 4.05z" fill="#8c6239"/><g fill="#603813"><rect height="4" rx="2" transform="matrix(.866 -.5 .5 .866 -12.845 28.36)" width="12" x="40.499" y="36.149"/><rect height="4" rx="2" transform="matrix(.866 -.5 .5 .866 -6.256 21.772)" width="12" x="31.499" y="20.56"/><path d="m42 53h14a2 2 0 0 1 2 2v3a0 0 0 0 1 0 0h-18a0 0 0 0 1 0 0v-3a2 2 0 0 1 2-2z"/></g><path d="m39 57h20a2 2 0 0 1 2 2v2a0 0 0 0 1 0 0h-24a0 0 0 0 1 0 0v-2a2 2 0 0 1 2-2z" fill="#8c6239"/></g></svg>